<svg width="48" height="48" viewBox="0 0 508 508" fill="none" xmlns="http://www.w3.org/2000/svg">
<rect width="508" height="508" fill="#AAA3F8"/>
<rect width="16" height="16" transform="translate(166 188)" fill="white"/>
<rect width="16" height="16" transform="translate(142 132)" fill="white"/>
<rect width="16" height="16" transform="translate(126 148)" fill="white"/>
<rect width="16" height="16" transform="translate(110 164)" fill="white"/>
<rect width="16" height="16" transform="translate(110 180)" fill="white"/>
<rect width="16" height="16" transform="translate(110 196)" fill="white"/>
<rect width="16" height="16" transform="translate(110 212)" fill="white"/>
<rect width="16" height="16" transform="translate(126 228)" fill="white"/>
<rect width="16" height="16" transform="translate(142 244)" fill="white"/>
<rect width="16" height="16" transform="translate(158 244)" fill="white"/>
<rect width="16" height="16" transform="translate(174 244)" fill="white"/>
<rect width="16" height="16" transform="translate(190 244)" fill="white"/>
<rect width="16" height="16" transform="translate(206 228)" fill="white"/>
<rect width="16" height="16" transform="translate(222 212)" fill="white"/>
<rect width="16" height="16" transform="translate(222 196)" fill="white"/>
<rect width="16" height="16" transform="translate(222 180)" fill="white"/>
<rect width="16" height="16" transform="translate(222 164)" fill="white"/>
<rect width="16" height="16" transform="translate(206 148)" fill="white"/>
<rect width="16" height="16" transform="translate(158 132)" fill="white"/>
<rect width="16" height="16" transform="translate(174 132)" fill="white"/>
<rect width="16" height="16" transform="translate(190 132)" fill="white"/>
<rect width="16" height="16" transform="translate(326 188)" fill="white"/>
<rect width="16" height="16" transform="translate(398 196)" fill="white"/>
<rect width="16" height="16" transform="translate(414 212)" fill="white"/>
<rect width="16" height="16" transform="translate(430 228)" fill="white"/>
<rect width="16" height="16" transform="translate(446 244)" fill="white"/>
<rect width="16" height="16" transform="translate(446 260)" fill="white"/>
<rect width="16" height="16" transform="translate(446 276)" fill="white"/>
<rect width="16" height="16" transform="translate(446 292)" fill="white"/>
<rect width="16" height="16" transform="translate(446 308)" fill="white"/>
<rect width="16" height="16" transform="translate(446 324)" fill="white"/>
<rect width="16" height="16" transform="translate(302 132)" fill="white"/>
<rect width="16" height="16" transform="translate(286 148)" fill="white"/>
<rect width="16" height="16" transform="translate(270 164)" fill="white"/>
<rect width="16" height="16" transform="translate(270 180)" fill="white"/>
<rect width="16" height="16" transform="translate(270 196)" fill="white"/>
<rect width="16" height="16" transform="translate(270 212)" fill="white"/>
<rect width="16" height="16" transform="translate(286 228)" fill="white"/>
<rect width="16" height="16" transform="translate(302 244)" fill="white"/>
<rect width="16" height="16" transform="translate(318 244)" fill="white"/>
<rect width="16" height="16" transform="translate(334 244)" fill="white"/>
<rect width="16" height="16" transform="translate(350 244)" fill="white"/>
<rect width="16" height="16" transform="translate(366 228)" fill="white"/>
<rect width="16" height="16" transform="translate(382 212)" fill="white"/>
<rect width="16" height="16" transform="translate(382 196)" fill="white"/>
<rect width="16" height="16" transform="translate(382 180)" fill="white"/>
<rect width="16" height="16" transform="translate(382 164)" fill="white"/>
<rect width="16" height="16" transform="translate(366 148)" fill="white"/>
<rect width="16" height="16" transform="translate(318 132)" fill="white"/>
<rect width="16" height="16" transform="translate(334 132)" fill="white"/>
<rect width="16" height="16" transform="translate(350 132)" fill="white"/>
<rect width="16" height="16" transform="translate(238 396)" fill="white"/>
<rect width="16" height="16" transform="translate(222 396)" fill="white"/>
<rect width="16" height="16" transform="translate(206 396)" fill="white"/>
<rect width="16" height="16" transform="translate(190 396)" fill="white"/>
<rect width="16" height="16" transform="translate(254 396)" fill="white"/>
<rect width="16" height="16" transform="translate(270 396)" fill="white"/>
<rect width="16" height="16" transform="translate(286 396)" fill="white"/>
<rect width="16" height="16" transform="translate(302 396)" fill="white"/>
<rect width="16" height="16" transform="translate(334 84)" fill="white"/>
<rect width="16" height="16" transform="translate(318 84)" fill="white"/>
<rect width="16" height="16" transform="translate(302 68)" fill="white"/>
<rect width="16" height="16" transform="translate(158 84)" fill="white"/>
<rect width="16" height="16" transform="translate(350 100)" fill="white"/>
<rect width="16" height="16" transform="translate(190 68)" fill="white"/>
<rect width="16" height="16" transform="translate(174 84)" fill="white"/>
<rect width="16" height="16" transform="translate(142 100)" fill="white"/>
</svg>
