<svg width="48" height="48" viewBox="0 0 508 508" fill="none" xmlns="http://www.w3.org/2000/svg">
<rect width="508" height="508" fill="#77B987"/>
<rect width="16" height="16" transform="translate(182 174)" fill="white"/>
<rect width="16" height="16" transform="translate(142 132)" fill="white"/>
<rect width="16" height="16" transform="translate(126 148)" fill="white"/>
<rect width="16" height="16" transform="translate(110 164)" fill="white"/>
<rect width="16" height="16" transform="translate(110 180)" fill="white"/>
<rect width="16" height="16" transform="translate(110 196)" fill="white"/>
<rect width="16" height="16" transform="translate(110 212)" fill="white"/>
<rect width="16" height="16" transform="translate(126 228)" fill="white"/>
<rect width="16" height="16" transform="translate(142 244)" fill="white"/>
<rect width="16" height="16" transform="translate(158 244)" fill="white"/>
<rect width="16" height="16" transform="translate(174 244)" fill="white"/>
<rect width="16" height="16" transform="translate(190 244)" fill="white"/>
<rect width="16" height="16" transform="translate(206 228)" fill="white"/>
<rect width="16" height="16" transform="translate(222 212)" fill="white"/>
<rect width="16" height="16" transform="translate(222 196)" fill="white"/>
<rect width="16" height="16" transform="translate(222 180)" fill="white"/>
<rect width="16" height="16" transform="translate(222 164)" fill="white"/>
<rect width="16" height="16" transform="translate(206 148)" fill="white"/>
<rect width="16" height="16" transform="translate(158 132)" fill="white"/>
<rect width="16" height="16" transform="translate(174 132)" fill="white"/>
<rect width="16" height="16" transform="translate(190 132)" fill="white"/>
<rect width="16" height="16" transform="translate(302 132)" fill="white"/>
<rect width="16" height="16" transform="translate(206 132)" fill="white"/>
<rect width="16" height="16" transform="translate(286 148)" fill="white"/>
<rect width="16" height="16" transform="translate(270 164)" fill="white"/>
<rect width="16" height="16" transform="translate(270 180)" fill="white"/>
<rect width="16" height="16" transform="translate(270 196)" fill="white"/>
<rect width="16" height="16" transform="translate(270 212)" fill="white"/>
<rect width="16" height="16" transform="translate(286 228)" fill="white"/>
<rect width="16" height="16" transform="translate(302 244)" fill="white"/>
<rect width="16" height="16" transform="translate(302 228)" fill="white"/>
<rect width="16" height="16" transform="translate(286 212)" fill="white"/>
<rect width="16" height="16" transform="translate(286 196)" fill="white"/>
<rect width="16" height="16" transform="translate(286 180)" fill="white"/>
<rect width="16" height="16" transform="translate(286 164)" fill="white"/>
<rect width="16" height="16" transform="translate(318 244)" fill="white"/>
<rect width="16" height="16" transform="translate(318 228)" fill="white"/>
<rect width="16" height="16" transform="translate(302 212)" fill="white"/>
<rect width="16" height="16" transform="translate(302 196)" fill="white"/>
<rect width="16" height="16" transform="translate(302 180)" fill="white"/>
<rect width="16" height="16" transform="translate(302 164)" fill="white"/>
<rect width="16" height="16" transform="translate(302 148)" fill="white"/>
<rect width="16" height="16" transform="translate(334 244)" fill="white"/>
<rect width="16" height="16" transform="translate(334 228)" fill="white"/>
<rect width="16" height="16" transform="translate(318 212)" fill="white"/>
<rect width="16" height="16" transform="translate(318 196)" fill="white"/>
<rect width="16" height="16" transform="translate(318 180)" fill="white"/>
<rect width="16" height="16" transform="translate(318 164)" fill="white"/>
<rect width="16" height="16" transform="translate(318 148)" fill="white"/>
<rect width="16" height="16" transform="translate(350 244)" fill="white"/>
<rect width="16" height="16" transform="translate(350 228)" fill="white"/>
<rect width="16" height="16" transform="translate(334 212)" fill="white"/>
<rect width="16" height="16" transform="translate(334 196)" fill="white"/>
<rect width="16" height="16" transform="translate(334 180)" fill="white"/>
<rect width="16" height="16" transform="translate(334 164)" fill="white"/>
<rect width="16" height="16" transform="translate(334 148)" fill="white"/>
<rect width="16" height="16" transform="translate(350 212)" fill="white"/>
<rect width="16" height="16" transform="translate(350 196)" fill="white"/>
<rect width="16" height="16" transform="translate(350 180)" fill="white"/>
<rect width="16" height="16" transform="translate(350 164)" fill="white"/>
<rect width="16" height="16" transform="translate(350 148)" fill="white"/>
<rect width="16" height="16" transform="translate(366 212)" fill="white"/>
<rect width="16" height="16" transform="translate(366 196)" fill="white"/>
<rect width="16" height="16" transform="translate(366 180)" fill="white"/>
<rect width="16" height="16" transform="translate(366 164)" fill="white"/>
<rect width="16" height="16" transform="translate(366 228)" fill="white"/>
<rect width="16" height="16" transform="translate(382 212)" fill="white"/>
<rect width="16" height="16" transform="translate(382 196)" fill="white"/>
<rect width="16" height="16" transform="translate(382 180)" fill="white"/>
<rect width="16" height="16" transform="translate(382 164)" fill="white"/>
<rect width="16" height="16" transform="translate(366 148)" fill="white"/>
<rect width="16" height="16" transform="translate(318 132)" fill="white"/>
<rect width="16" height="16" transform="translate(270 132)" fill="white"/>
<rect width="16" height="16" transform="translate(254 116)" fill="white"/>
<rect width="16" height="16" transform="translate(238 116)" fill="white"/>
<rect width="16" height="16" transform="translate(222 100)" fill="white"/>
<rect width="16" height="16" transform="translate(334 132)" fill="white"/>
<rect width="16" height="16" transform="translate(382 244)" fill="white"/>
<rect width="16" height="16" transform="translate(398 260)" fill="white"/>
<rect width="16" height="16" transform="translate(414 260)" fill="white"/>
<rect width="16" height="16" transform="translate(430 276)" fill="white"/>
<rect width="16" height="16" transform="translate(350 132)" fill="white"/>
<rect width="16" height="16" transform="translate(238 396)" fill="white"/>
<rect width="16" height="16" transform="translate(222 396)" fill="white"/>
<rect width="16" height="16" transform="translate(254 396)" fill="white"/>
<rect width="16" height="16" transform="translate(270 396)" fill="white"/>
<rect width="16" height="16" transform="translate(286 396)" fill="white"/>
<rect width="16" height="16" transform="translate(302 396)" fill="white"/>
<rect width="16" height="16" transform="translate(318 412)" fill="white"/>
<rect width="16" height="16" transform="translate(334 428)" fill="white"/>
<rect width="16" height="16" transform="translate(334 84)" fill="white"/>
<rect width="16" height="16" transform="translate(318 84)" fill="white"/>
<rect width="16" height="16" transform="translate(302 84)" fill="white"/>
<rect width="16" height="16" transform="translate(158 84)" fill="white"/>
<rect width="16" height="16" transform="translate(350 84)" fill="white"/>
<rect width="16" height="16" transform="translate(190 84)" fill="white"/>
<rect width="16" height="16" transform="translate(174 84)" fill="white"/>
<rect width="16" height="16" transform="translate(142 84)" fill="white"/>
</svg>
